<svg width="93" height="32" viewBox="0 0 93 32" fill="none" xmlns="http://www.w3.org/2000/svg">
<path d="M29.0804 0H40.5262L46.3242 9.56782L51.916 0H63.2527L51.2842 20.4786V32H41.5158V20.5209L29.0804 0ZM76.9263 31.9928C68.1595 31.9928 61.0526 24.831 61.0526 15.9964C61.0526 7.16183 68.1595 0 76.9263 0C85.6931 0 92.8 7.16183 92.8 15.9964C92.8 24.831 85.6931 31.9928 76.9263 31.9928ZM76.9263 22.1489C80.2982 22.1489 83.0316 19.3943 83.0316 15.9964C83.0316 12.5985 80.2982 9.84394 76.9263 9.84394C73.5545 9.84394 70.821 12.5985 70.821 15.9964C70.821 19.3943 73.5545 22.1489 76.9263 22.1489ZM15.8737 31.9928C7.10689 31.9928 0 24.831 0 15.9964C0 7.16183 7.10689 0 15.8737 0C24.6405 0 31.7474 7.16183 31.7474 15.9964C31.7474 24.831 24.6405 31.9928 15.8737 31.9928ZM15.8737 22.1489C19.2455 22.1489 21.9789 19.3943 21.9789 15.9964C21.9789 12.5985 19.2455 9.84394 15.8737 9.84394C12.5018 9.84394 9.76842 12.5985 9.76842 15.9964C9.76842 19.3943 12.5018 22.1489 15.8737 22.1489Z" fill="#EE2A24"/>
</svg>
